<svg xmlns="http://www.w3.org/2000/svg" viewBox="0 0 102.72 100.49"><title>&#x8D44;&#x6E90; 3</title><g fill="#333"><path d="M79.51 41.25h10.84l9.45-8.85H88.96l-9.45 8.85zM69.85 83a26.8 26.8 0 0 0 8.41-4.86 29.34 29.34 0 0 0 6.39-7.92 36.55 36.55 0 0 0 3.89-10.83H74.92a33.11 33.11 0 0 1-3.06 7.36 29.56 29.56 0 0 1-5.28 6.77 31.54 31.54 0 0 1-7.78 5.43 28.45 28.45 0 0 1-10 2.79 23.4 23.4 0 0 0 11.26 2.92A28.9 28.9 0 0 0 69.85 83zM89.1 28.84H102a46.27 46.27 0 0 0-7-12.13 45.32 45.32 0 0 0-9.44-8.91 43 43 0 0 0-11.19-5.57A45.75 45.75 0 0 0 62.27 0a51 51 0 0 1 15.57 10.81A50.49 50.49 0 0 1 89.1 28.84z"/><path d="M80.34 81.17a30.57 30.57 0 0 1-20.29 7.23 27.56 27.56 0 0 1-10.84-2.29 30.23 30.23 0 0 1-9.8-6.74 33.19 33.19 0 0 1-7-11 37.6 37.6 0 0 1-2.78-14.88 40.92 40.92 0 0 1 2.06-13.39 34.22 34.22 0 0 1 5.77-10.57 28.78 28.78 0 0 1 8.69-7.22A30.09 30.09 0 0 1 57 18.9a23 23 0 0 0-5.42-2.29 20.88 20.88 0 0 0-5.58-.77 24.56 24.56 0 0 0-11.12 2.64 29 29 0 0 0-9.31 7.44 37.43 37.43 0 0 0-6.47 11.54 44.21 44.21 0 0 0-2.43 15.08 54.1 54.1 0 0 0 3.54 20.15 45 45 0 0 0 9.53 15 40.94 40.94 0 0 0 14 9.38 44.11 44.11 0 0 0 16.89 3.27 45 45 0 0 0 13.2-2 42 42 0 0 0 12-5.84 43.71 43.71 0 0 0 9.8-9.5 51.44 51.44 0 0 0 7.09-13.07L92 60.32Q89 74 80.34 81.17z"/><path d="M21.34 83a51.65 51.65 0 0 1-6.19-13.76 59.66 59.66 0 0 1-2.22-16.68 49.14 49.14 0 0 1 2.57-16.2 39.62 39.62 0 0 1 7.09-12.78 33.8 33.8 0 0 1 10.49-8.41 27.69 27.69 0 0 1 12.79-3.06A24.73 24.73 0 0 1 55.25 14a28.51 28.51 0 0 1 8.62 5.49 35.36 35.36 0 0 1 6.88 8.75 43.91 43.91 0 0 1 4.45 11.51l10.56-9.59A47.06 47.06 0 0 0 69.57 8.41a43.71 43.71 0 0 0-11.4-6.12A36.31 36.31 0 0 0 45.87.13a42.84 42.84 0 0 0-18.63 4 43.62 43.62 0 0 0-14.52 11.09 50.93 50.93 0 0 0-9.38 16.4A58.92 58.92 0 0 0 0 51.57a54.35 54.35 0 0 0 3.61 20.57 46 46 0 0 0 9.59 15 43.28 43.28 0 0 0 13.49 9.46 45.21 45.21 0 0 0 15.43 3.89A45.5 45.5 0 0 1 21.34 83z"/></g></svg>